<?xml version="1.0" standalone="no"?>
<!DOCTYPE svg PUBLIC "-//W3C//DTD SVG 20010904//EN"
 "http://www.w3.org/TR/2001/REC-SVG-20010904/DTD/svg10.dtd">
<svg version="1.0" xmlns="http://www.w3.org/2000/svg"
 width="512.000000pt" height="512.000000pt" viewBox="0 0 512.000000 512.000000"
 preserveAspectRatio="xMidYMid meet">
<metadata>
Created by potrace 1.11, written by Peter Selinger 2001-2013
</metadata>
<g transform="translate(0.000000,512.000000) scale(0.100000,-0.100000)"
fill="#000000" stroke="none">
<path d="M0 2560 l0 -2560 2560 0 2560 0 0 2560 0 2560 -2560 0 -2560 0 0
-2560z m1424 2068 c114 -434 145 -541 149 -528 5 12 110 406 158 594 l11 39
206 -7 c117 -4 211 -11 217 -17 5 -5 10 -33 9 -61 0 -38 -5 -55 -18 -62 -10
-6 -29 -19 -42 -29 l-24 -18 0 -674 0 -674 30 -16 c36 -19 50 -43 50 -89 0
-70 16 -66 -275 -66 l-263 0 -7 31 c-12 54 3 98 39 120 19 11 35 30 37 42 2
12 2 211 -1 441 l-5 419 -89 -337 -90 -337 -60 3 -61 3 -82 305 c-45 168 -86
319 -92 335 -6 20 -9 -119 -10 -404 l-1 -434 35 -33 c43 -40 58 -78 47 -119
l-8 -30 -140 -3 c-122 -2 -140 0 -151 15 -23 30 -15 69 22 113 l35 42 -2 670
-3 670 -38 32 c-31 26 -37 37 -37 71 0 63 9 83 39 88 14 2 108 5 207 6 l181 1
27 -102z m2231 78 c153 -40 248 -144 275 -298 29 -165 -54 -312 -214 -384 -36
-16 -65 -31 -65 -34 0 -3 34 -21 77 -42 175 -82 242 -197 242 -411 -1 -224
-89 -392 -244 -463 -104 -47 -165 -54 -517 -54 -362 0 -339 -5 -339 67 0 29 8
43 45 77 l45 42 0 667 0 666 -26 18 c-65 45 -78 76 -54 137 l10 26 357 0 c267
0 371 -4 408 -14z m-856 -765 c20 -13 10 -81 -33 -221 -48 -161 -47 -160 -223
-153 l-138 5 -24 -26 c-21 -22 -33 -26 -83 -26 -52 0 -58 2 -64 24 -5 23 31
194 62 289 9 26 24 52 34 57 11 6 78 9 157 8 137 -3 138 -3 173 24 26 21 46
28 80 28 25 0 51 -4 59 -9z m-1695 -1407 c24 -9 22 -111 -4 -144 -11 -14 -20
-32 -20 -40 -1 -24 134 -740 140 -740 3 0 23 96 44 214 l39 214 -27 148 c-22
123 -32 156 -56 192 -24 34 -30 53 -30 96 0 40 4 55 16 60 9 3 117 6 240 6
l224 0 11 -27 c16 -43 2 -99 -33 -127 l-31 -24 63 -348 c63 -353 70 -387 76
-369 7 20 124 680 124 699 0 10 -18 35 -41 55 -38 35 -40 40 -37 87 l3 49 148
3 c147 3 147 3 156 -21 15 -39 1 -105 -25 -126 -13 -10 -28 -29 -34 -42 -5
-13 -71 -356 -145 -762 -74 -405 -139 -746 -145 -757 -10 -18 -21 -20 -114
-20 -76 0 -107 4 -115 14 -9 11 -85 395 -142 725 -7 41 -14 70 -16 65 -1 -5
-32 -178 -68 -384 -36 -206 -70 -385 -75 -398 -10 -22 -13 -23 -127 -20 l-118
3 -12 40 c-6 22 -68 353 -138 735 -69 382 -131 712 -136 732 -6 23 -22 47 -39
60 -28 20 -30 27 -30 83 0 34 3 65 7 68 8 9 446 9 467 1z m1815 -3 c20 -13 84
-340 70 -358 -15 -18 -89 -17 -116 2 -12 8 -31 40 -42 71 -50 132 -77 164
-138 164 l-43 0 2 -302 3 -303 38 -3 c60 -5 84 17 98 89 16 79 28 92 88 83 25
-4 49 -8 54 -11 13 -8 8 -428 -5 -441 -14 -14 -86 -16 -106 -3 -7 4 -20 34
-28 67 -24 91 -27 94 -89 94 l-55 0 0 -365 0 -365 44 0 c65 0 89 25 122 123
33 102 58 153 79 161 9 3 34 6 55 6 66 0 68 -9 36 -203 -15 -95 -32 -180 -37
-190 -9 -16 -38 -17 -387 -17 -281 0 -381 3 -390 12 -7 7 -12 29 -12 51 0 29
6 44 26 60 15 12 37 32 50 44 l24 22 0 671 0 670 -45 28 c-45 27 -45 27 -45
83 0 31 3 59 7 62 10 10 726 8 742 -2z m951 -19 c116 -39 211 -135 241 -245
15 -57 12 -172 -6 -227 -28 -84 -131 -181 -232 -220 l-45 -17 86 -41 c140 -67
196 -133 232 -272 13 -50 15 -89 11 -170 -16 -268 -114 -404 -337 -466 -57
-16 -107 -19 -410 -19 l-345 0 -3 52 c-2 38 1 55 14 65 9 7 29 25 45 40 l29
26 0 666 c0 520 -3 668 -12 676 -7 6 -28 20 -45 30 -30 18 -33 24 -33 69 0 87
-18 83 389 79 333 -4 360 -5 421 -26z"/>
<path d="M3360 4331 l0 -281 40 0 c23 0 53 6 68 14 52 27 57 51 57 266 0 244
-8 261 -120 276 l-45 7 0 -282z"/>
<path d="M3360 3535 l0 -398 52 6 c105 13 118 55 117 381 0 369 -8 395 -113
404 l-56 4 0 -397z"/>
<path d="M3542 2144 l3 -279 52 0 c100 1 123 52 123 275 0 223 -21 269 -125
278 l-55 5 2 -279z"/>
<path d="M3540 1344 l0 -397 52 7 c68 9 87 21 105 64 20 47 28 287 18 506 -7
157 -8 160 -35 188 -24 24 -36 28 -84 28 l-56 0 0 -396z"/>
</g>
</svg>
